<mxfile host="app.diagrams.net" modified="2023-03-28T20:48:19.777Z" agent="Mozilla/5.0 (Windows NT 10.0; Win64; x64) AppleWebKit/537.36 (KHTML, like Gecko) Chrome/111.0.0.0 Safari/537.36" etag="k7BW-VWuI_n8opA-VItK" version="21.1.1" type="github">
  <diagram name="Page-1" id="ShC8NdJLKS3Jmi1F9GBR">
    <mxGraphModel dx="1434" dy="806" grid="1" gridSize="10" guides="1" tooltips="1" connect="1" arrows="1" fold="1" page="1" pageScale="1" pageWidth="850" pageHeight="1100" math="0" shadow="0">
      <root>
        <mxCell id="0" />
        <mxCell id="1" parent="0" />
        <mxCell id="54U0eTTsK6xQpLQY22YJ-3" value="" style="rounded=1;whiteSpace=wrap;html=1;" vertex="1" parent="1">
          <mxGeometry x="320" y="250" width="330" height="180" as="geometry" />
        </mxCell>
        <mxCell id="-hb9onR2kKqEGJpAmYPG-1" value="" style="image;sketch=0;aspect=fixed;html=1;points=[];align=center;fontSize=12;image=img/lib/mscae/Virtual_Network.svg;" parent="1" vertex="1">
          <mxGeometry x="450" y="640" width="50" height="28.000000000000004" as="geometry" />
        </mxCell>
        <mxCell id="-hb9onR2kKqEGJpAmYPG-2" value="" style="image;sketch=0;aspect=fixed;html=1;points=[];align=center;fontSize=12;image=img/lib/mscae/App_Services.svg;" parent="1" vertex="1">
          <mxGeometry x="148" y="680" width="40" height="40" as="geometry" />
        </mxCell>
        <mxCell id="-hb9onR2kKqEGJpAmYPG-3" value="" style="image;sketch=0;aspect=fixed;html=1;points=[];align=center;fontSize=12;image=img/lib/mscae/Virtual_Network.svg;" parent="1" vertex="1">
          <mxGeometry x="350" y="270" width="50" height="28.000000000000004" as="geometry" />
        </mxCell>
        <mxCell id="54U0eTTsK6xQpLQY22YJ-2" value="" style="image;sketch=0;aspect=fixed;html=1;points=[];align=center;fontSize=12;image=img/lib/mscae/SQL_Database_generic.svg;" vertex="1" parent="1">
          <mxGeometry x="150" y="580" width="38" height="50" as="geometry" />
        </mxCell>
        <mxCell id="54U0eTTsK6xQpLQY22YJ-4" value="" style="rounded=1;whiteSpace=wrap;html=1;" vertex="1" parent="1">
          <mxGeometry x="330" y="480" width="330" height="180" as="geometry" />
        </mxCell>
      </root>
    </mxGraphModel>
  </diagram>
</mxfile>
